<?xml version="1.0" encoding="UTF-8" standalone="no" ?>
<!DOCTYPE svg PUBLIC "-//W3C//DTD SVG 1.1//EN" "http://www.w3.org/Graphics/SVG/1.1/DTD/svg11.dtd">
<svg xmlns="http://www.w3.org/2000/svg" xmlns:xlink="http://www.w3.org/1999/xlink" version="1.1" width="1080" height="1080" viewBox="0 0 1080 1080" xml:space="preserve">
<desc>Created with Fabric.js 5.2.4</desc>
<defs>
</defs>
<g transform="matrix(1 0 0 1 540 540)" id="e01bac04-d283-44af-9c9e-b7700a251ba6"  >
</g>
<g transform="matrix(1 0 0 1 540 540)" id="992a3fa9-ea0f-4fc1-92b4-add1724557b3"  >
<rect style="stroke: none; stroke-width: 1; stroke-dasharray: none; stroke-linecap: butt; stroke-dashoffset: 0; stroke-linejoin: miter; stroke-miterlimit: 4; fill: rgb(255,255,255); fill-rule: nonzero; opacity: 1; visibility: hidden;" vector-effect="non-scaling-stroke"  x="-540" y="-540" rx="0" ry="0" width="1080" height="1080" />
</g>
<g transform="matrix(1 0 0 1 540 540)"  >
<path style="stroke: rgb(0,0,0); stroke-width: 0; stroke-dasharray: none; stroke-linecap: butt; stroke-dashoffset: 0; stroke-linejoin: miter; stroke-miterlimit: 4; fill: rgb(244,63,94); fill-rule: nonzero; opacity: 1;" vector-effect="non-scaling-stroke"  transform=" translate(-256, -256)" d="M 512 268 C 512 285.9 507.7 302.5 499.1 317.7 C 490.50000000000006 332.9 479 344.8 464.5 353.09999999999997 C 464.9 355.79999999999995 465.1 359.99999999999994 465.1 365.7 C 465.1 392.8 456 415.8 438 434.79999999999995 C 419.9 453.9 398.1 463.4 372.6 463.4 C 361.20000000000005 463.4 350.3 461.29999999999995 340 457.09999999999997 C 332 473.49999999999994 320.5 486.7 305.4 496.79999999999995 C 290.4 506.99999999999994 273.9 511.99999999999994 255.99999999999997 511.99999999999994 C 237.69999999999996 511.99999999999994 221.09999999999997 507.09999999999997 206.29999999999995 497.09999999999997 C 191.39999999999995 487.2 179.99999999999994 473.9 171.99999999999994 457.09999999999997 C 161.69999999999993 461.29999999999995 150.89999999999995 463.4 139.39999999999995 463.4 C 113.89999999999995 463.4 91.99999999999994 453.9 73.69999999999995 434.79999999999995 C 55.39999999999995 415.79999999999995 46.29999999999995 392.69999999999993 46.29999999999995 365.69999999999993 C 46.29999999999995 362.69999999999993 46.699999999999946 358.49999999999994 47.39999999999995 353.0999999999999 C 32.89999999999995 344.69999999999993 21.39999999999995 332.8999999999999 12.799999999999947 317.69999999999993 C 4.299999999999947 302.49999999999994 -5.3290705182007514e-14 285.8999999999999 -5.3290705182007514e-14 267.99999999999994 C -5.3290705182007514e-14 248.99999999999994 4.7999999999999465 231.49999999999994 14.299999999999947 215.69999999999993 C 23.799999999999947 199.89999999999992 36.59999999999995 188.19999999999993 52.599999999999945 180.59999999999994 C 48.39999999999994 169.19999999999993 46.29999999999995 157.69999999999993 46.29999999999995 146.29999999999995 C 46.29999999999995 119.29999999999995 55.39999999999995 96.19999999999996 73.69999999999995 77.19999999999996 C 91.99999999999994 58.19999999999996 113.89999999999995 48.59999999999996 139.39999999999995 48.59999999999996 C 150.79999999999995 48.59999999999996 161.69999999999996 50.69999999999996 171.99999999999994 54.899999999999956 C 179.99999999999994 38.49999999999996 191.49999999999994 25.299999999999955 206.59999999999994 15.199999999999953 C 221.59999999999994 5.0999999999999535 238.09999999999994 -4.618527782440651e-14 255.99999999999994 -4.618527782440651e-14 C 273.9 -4.618527782440651e-14 290.3999999999999 5.0999999999999535 305.3999999999999 15.099999999999953 C 320.3999999999999 25.199999999999953 331.99999999999994 38.399999999999956 339.99999999999994 54.799999999999955 C 350.29999999999995 50.59999999999995 361.09999999999997 48.49999999999996 372.59999999999997 48.49999999999996 C 398.09999999999997 48.49999999999996 419.9 57.99999999999996 438 77.09999999999997 C 456.1 96.19999999999997 465.1 119.19999999999996 465.1 146.19999999999996 C 465.1 158.79999999999995 463.20000000000005 170.19999999999996 459.40000000000003 180.49999999999994 C 475.40000000000003 188.09999999999994 488.20000000000005 199.79999999999995 497.70000000000005 215.59999999999994 C 507.20000000000005 231.49999999999994 512 248.99999999999994 512 267.99999999999994 z M 245.10000000000002 345.1 L 350.8 186.8 C 353.5 182.60000000000002 354.3 178 353.40000000000003 173.10000000000002 C 352.40000000000003 168.20000000000002 349.90000000000003 164.3 345.70000000000005 161.70000000000002 C 341.50000000000006 159.00000000000003 336.90000000000003 158.10000000000002 332.00000000000006 158.8 C 327.00000000000006 159.60000000000002 323.00000000000006 162 320.00000000000006 166.20000000000002 L 226.90000000000006 306.20000000000005 L 184.00000000000006 263.40000000000003 C 180.20000000000005 259.6 175.80000000000007 257.8 170.90000000000006 258.00000000000006 C 165.90000000000006 258.20000000000005 161.60000000000005 260.00000000000006 157.80000000000007 263.40000000000003 C 154.40000000000006 266.8 152.70000000000007 271.1 152.70000000000007 276.3 C 152.70000000000007 281.40000000000003 154.40000000000006 285.7 157.80000000000007 289.2 L 216.70000000000007 348.09999999999997 L 219.60000000000008 350.4 C 223.00000000000009 352.7 226.50000000000009 353.79999999999995 229.9000000000001 353.79999999999995 C 236.60000000000008 353.69999999999993 241.7000000000001 350.9 245.10000000000008 345.09999999999997 z" stroke-linecap="round" />
</g>
<g transform="matrix(NaN NaN NaN NaN 0 0)"  >
<g style=""   >
</g>
</g>
</svg>